<svg xmlns="http://www.w3.org/2000/svg" viewBox="0 0 720 620" style="enable-background:new 0 0 720 620" xml:space="preserve">
  <radialGradient id="a" cx="387.615" cy="92.554" r="480.002" gradientTransform="matrix(1.3585 0 0 1.4091 -163.019 -132.455)" gradientUnits="userSpaceOnUse">
    <stop offset=".01" style="stop-color:#7895a7"/>
    <stop offset=".5" style="stop-color:#587789"/>
    <stop offset=".69" style="stop-color:#446577"/>
    <stop offset="1" style="stop-color:#1a3f52"/>
  </radialGradient>
  <path d="M360 620c65.5 0 185.1-5.6 266.3-18.3 72-11.3 82.9-18.3 88.3-84.5 4.2-51.5 5.4-154.6 5.4-206.6 0-52.3-13.6-226-13.6-226 0-42.3-30.1-58.4-70.6-63.4C555.6 11.3 523 0 360 0S164.4 11.3 84.2 21.1c-40.5 5-70.6 21.1-70.6 63.4 0 0-13.6 173.7-13.6 226 0 52 1.2 155.1 5.4 206.6 5.4 66.2 16.3 73.3 88.3 84.5C174.9 614.4 294.5 620 360 620z" style="fill:url(#a)"/>
</svg>