<?xml version="1.0" standalone="no"?>
<!DOCTYPE svg PUBLIC "-//W3C//DTD SVG 20010904//EN"
 "http://www.w3.org/TR/2001/REC-SVG-20010904/DTD/svg10.dtd">
<svg version="1.0" xmlns="http://www.w3.org/2000/svg"
 width="264.000000pt" height="264.000000pt" viewBox="0 0 264.000000 264.000000"
 preserveAspectRatio="xMidYMid meet">
<metadata>
Created by potrace 1.14, written by Peter Selinger 2001-2017
</metadata>
<g transform="translate(0.000000,264.000000) scale(0.100000,-0.100000)"
fill="#000000" stroke="none">
<path d="M0 1320 l0 -1320 1320 0 1320 0 0 1320 0 1320 -1320 0 -1320 0 0
-1320z m864 1084 c9 -8 16 -26 16 -39 0 -44 10 -55 51 -55 26 0 46 -7 60 -21
19 -19 20 -30 17 -125 -2 -80 -7 -107 -18 -114 -12 -8 -8 -10 13 -10 45 0 67
-17 67 -51 0 -51 16 -69 60 -69 63 0 70 -15 70 -146 l0 -114 111 0 c102 0 110
1 103 18 -14 29 -6 324 8 339 7 7 47 15 88 18 41 4 85 8 98 11 l23 5 -21 26
c-19 25 -20 35 -14 172 5 115 10 149 22 159 23 17 557 18 569 0 4 -7 13 -31
18 -53 10 -38 13 -40 60 -48 27 -5 53 -14 57 -20 10 -15 9 -1883 0 -1947 l-7
-45 -225 0 -225 0 -7 110 c-6 88 -11 112 -25 122 -44 30 -44 29 -41 186 l3
152 31 15 30 14 -30 16 c-28 13 -32 22 -40 78 -8 52 -12 61 -25 55 -9 -3 -51
-8 -95 -9 -43 -2 -80 -5 -83 -8 -3 -3 -7 -81 -10 -173 -4 -138 -8 -170 -21
-181 -11 -9 -72 -12 -223 -12 -173 0 -209 2 -219 15 -8 9 -15 55 -17 113 -4
90 -7 99 -31 119 -18 15 -30 39 -37 70 -10 46 -11 48 -54 55 -62 11 -71 22
-71 87 0 31 -3 80 -7 109 -5 45 -10 55 -34 67 l-28 15 -5 -43 c-3 -23 -8 -244
-11 -492 -3 -247 -8 -458 -11 -467 -6 -21 -24 -22 -284 -18 -111 1 -167 6
-172 14 -4 6 -8 54 -8 106 0 100 -3 108 -35 126 -12 7 -23 27 -28 55 -9 53 -5
264 6 275 4 4 35 13 70 19 l62 12 -56 7 c-31 5 -62 12 -70 17 -22 13 -27 310
-5 328 8 7 56 16 106 21 51 5 94 11 96 13 3 2 -39 7 -91 9 -54 3 -101 10 -108
17 -16 16 -23 292 -8 320 7 12 27 23 49 27 l37 7 -35 9 c-56 15 -60 26 -60
183 0 160 4 173 65 181 68 10 72 17 15 25 -33 4 -59 14 -67 25 -9 13 -13 58
-13 156 0 194 -27 178 309 178 232 0 272 -2 285 -16z"/>
<path d="M2198 2085 c-10 -13 -30 -25 -45 -27 -25 -4 -26 -5 -8 -12 11 -4 32
-13 48 -21 l27 -14 0 49 c0 28 -1 50 -2 50 -2 0 -11 -11 -20 -25z"/>
<path d="M870 2065 c-10 -13 -9 -15 9 -15 11 0 21 4 21 9 0 18 -18 21 -30 6z"/>
<path d="M2194 1682 l-20 -17 23 -22 23 -22 0 39 c0 22 -1 40 -2 40 -2 0 -12
-8 -24 -18z"/>
<path d="M698 1664 c-5 -5 -1 -125 5 -130 1 -1 29 4 62 10 60 12 60 13 65 52
3 21 9 44 13 50 4 7 -2 14 -16 18 -28 7 -122 8 -129 0z"/>
<path d="M1646 1661 c-7 -18 7 -130 16 -125 5 4 33 9 62 13 l51 6 5 52 c5 50
4 53 -21 58 -30 7 -109 4 -113 -4z"/>
<path d="M2210 1347 c0 -32 -33 -57 -77 -57 -18 0 -33 -4 -33 -10 0 -5 18 -10
39 -10 30 0 44 -6 59 -25 l20 -25 6 37 c6 39 2 101 -8 111 -3 3 -6 -6 -6 -21z"/>
<path d="M676 1305 c-13 -10 -43 -15 -85 -15 -79 0 -73 -12 8 -16 32 -1 68 -7
80 -13 20 -11 21 -9 21 24 0 19 -1 35 -2 35 -2 0 -12 -7 -22 -15z"/>
<path d="M1620 1300 c-8 -5 -51 -10 -96 -10 -44 0 -84 -3 -87 -6 -3 -4 0 -16
8 -28 8 -11 15 -41 15 -66 l0 -45 87 3 c49 2 91 7 95 10 13 14 14 152 1 152
-5 0 -15 -5 -23 -10z"/>
<path d="M1774 1299 c-3 -5 -2 -19 1 -30 5 -15 10 -18 18 -10 6 6 19 11 28 11
32 0 28 15 -7 26 -19 6 -37 7 -40 3z"/>
<path d="M2211 974 c-1 -48 -16 -64 -69 -75 -35 -6 -35 -7 -7 -8 42 -1 75 -27
76 -59 l1 -27 8 25 c10 31 10 115 0 155 -7 29 -8 28 -9 -11z"/>
<path d="M668 911 l-26 -17 29 -17 c26 -15 30 -15 36 -1 3 8 2 23 -3 33 -8 17
-11 17 -36 2z"/>
<path d="M1442 918 c-7 -7 -56 -14 -125 -18 l-112 -5 0 -60 0 -60 130 0 130 0
3 55 c4 68 -8 106 -26 88z"/>
<path d="M2211 714 c0 -11 3 -14 6 -6 3 7 2 16 -1 19 -3 4 -6 -2 -5 -13z"/>
<path d="M2210 633 c0 -95 -11 -103 -134 -103 -66 0 -106 -4 -114 -12 -16 -16
-16 -110 0 -126 14 -14 235 -17 257 -3 16 10 16 20 12 184 -4 111 -21 162 -21
60z"/>
<path d="M697 627 c-4 -10 -7 -29 -7 -42 0 -46 -23 -55 -135 -55 -57 0 -107
-4 -110 -10 -14 -22 -17 -110 -5 -125 17 -21 252 -22 269 -2 8 10 9 50 3 133
-4 69 -10 111 -15 101z"/>
</g>
</svg>
